<svg width="355" height="144" viewBox="0 0 355 144" fill="none" xmlns="http://www.w3.org/2000/svg">
<g filter="url(#filter0_d_1_948)">
<path d="M30 33.1794C30 23.1392 38.1392 15 48.1794 15H306.821C316.861 15 325 23.1392 325 33.1794V81.9063C325 91.9072 316.893 100.014 306.892 100.014H48.1081C38.1072 100.014 30 91.9072 30 81.9063V33.1794Z" fill="white"/>
<path d="M30.4167 33.1794C30.4167 23.3693 38.3693 15.4167 48.1794 15.4167H306.821C316.631 15.4167 324.583 23.3693 324.583 33.1794V81.9063C324.583 91.677 316.663 99.5977 306.892 99.5977H48.1081C38.3374 99.5977 30.4167 91.677 30.4167 81.9063V33.1794Z" stroke="#F3F3F3" stroke-width="0.833357"/>
<path d="M73.692 55V53.208H74.77V51.584H73.692V45.998H71.76L67.49 51.318V53.208H71.536V55H73.692ZM69.1 51.584L71.536 48.448V51.584H69.1ZM75.6824 55.014H82.4584V53.376H77.9784C78.8604 51.598 82.4724 51.22 82.4724 48.644C82.4724 47.076 81.3384 45.774 79.1824 45.774C77.1944 45.774 75.8784 46.894 75.6404 48.714H77.7964C77.9224 47.958 78.3424 47.51 79.1684 47.51C79.8964 47.51 80.3304 47.93 80.3304 48.672C80.3304 50.618 75.6824 50.464 75.6824 54.482V55.014ZM85.5408 50.912C86.9548 50.912 87.7948 49.96 87.7948 48.35C87.7948 46.726 86.9548 45.774 85.5408 45.774C84.1408 45.774 83.3008 46.726 83.3008 48.35C83.3008 49.974 84.1408 50.912 85.5408 50.912ZM85.1348 55H86.9548L92.7648 45.998H90.9448L85.1348 55ZM85.5408 49.638C85.1208 49.638 84.8828 49.176 84.8828 48.35C84.8828 47.51 85.1068 47.062 85.5408 47.062C85.9748 47.062 86.2128 47.51 86.2128 48.35C86.2128 49.19 85.9748 49.638 85.5408 49.638ZM92.3448 55.14C93.7588 55.14 94.5988 54.202 94.5988 52.592C94.5988 50.968 93.7588 50.016 92.3448 50.016C90.9448 50.016 90.1048 50.968 90.1048 52.592C90.1048 54.202 90.9448 55.14 92.3448 55.14ZM92.3448 53.88C91.9248 53.88 91.6868 53.418 91.6868 52.592C91.6868 51.752 91.9108 51.29 92.3448 51.29C92.7788 51.29 93.0168 51.752 93.0168 52.592C93.0168 53.432 92.7788 53.88 92.3448 53.88Z" fill="#C9C9D7"/>
<path d="M69.165 71V65.02H67.15V64H72.27V65.02H70.255V71H69.165ZM74.4482 71.1C73.9249 71.1 73.4765 70.985 73.1032 70.755C72.7332 70.5217 72.4499 70.2117 72.2532 69.825C72.0599 69.435 71.9632 69.005 71.9632 68.535C71.9632 68.0617 72.0599 67.63 72.2532 67.24C72.4499 66.85 72.7332 66.54 73.1032 66.31C73.4765 66.0767 73.9249 65.96 74.4482 65.96C74.9749 65.96 75.4232 66.0767 75.7932 66.31C76.1665 66.54 76.4499 66.85 76.6432 67.24C76.8399 67.63 76.9382 68.0617 76.9382 68.535C76.9382 69.005 76.8399 69.435 76.6432 69.825C76.4499 70.2117 76.1665 70.5217 75.7932 70.755C75.4232 70.985 74.9749 71.1 74.4482 71.1ZM74.4482 70.205C74.9082 70.205 75.2599 70.055 75.5032 69.755C75.7499 69.455 75.8732 69.0483 75.8732 68.535C75.8732 68.0183 75.7499 67.6083 75.5032 67.305C75.2599 67.0017 74.9082 66.85 74.4482 66.85C73.9949 66.85 73.6449 67.0017 73.3982 67.305C73.1515 67.6083 73.0282 68.0183 73.0282 68.535C73.0282 69.0483 73.1515 69.455 73.3982 69.755C73.6449 70.055 73.9949 70.205 74.4482 70.205ZM79.8141 71.1C79.3608 71.1 78.9641 70.985 78.6241 70.755C78.2841 70.5217 78.0191 70.2117 77.8291 69.825C77.6425 69.4383 77.5491 69.01 77.5491 68.54C77.5491 68.0833 77.6375 67.66 77.8141 67.27C77.9941 66.8767 78.2525 66.5617 78.5891 66.325C78.9291 66.085 79.3375 65.965 79.8141 65.965C80.1575 65.965 80.4708 66.0317 80.7541 66.165C81.0375 66.2983 81.2758 66.5 81.4691 66.77L81.2291 66.955V63.5H82.2741V71H81.3191L81.1941 70.04L81.4791 70.245C81.2991 70.5217 81.0675 70.7333 80.7841 70.88C80.5008 71.0267 80.1775 71.1 79.8141 71.1ZM79.9841 70.205C80.2308 70.205 80.4541 70.1433 80.6541 70.02C80.8575 69.8967 81.0175 69.7117 81.1341 69.465C81.2541 69.2183 81.3141 68.91 81.3141 68.54C81.3141 68.1867 81.2541 67.885 81.1341 67.635C81.0175 67.3817 80.8575 67.19 80.6541 67.06C80.4541 66.9267 80.2308 66.86 79.9841 66.86C79.6975 66.86 79.4508 66.9333 79.2441 67.08C79.0408 67.2233 78.8841 67.4217 78.7741 67.675C78.6675 67.925 78.6141 68.2133 78.6141 68.54C78.6141 68.8533 78.6675 69.1367 78.7741 69.39C78.8841 69.64 79.0408 69.8383 79.2441 69.985C79.4508 70.1317 79.6975 70.205 79.9841 70.205ZM84.5694 71.1C84.2827 71.1 84.0277 71.04 83.8044 70.92C83.581 70.7967 83.4044 70.6267 83.2744 70.41C83.1477 70.1933 83.0844 69.9383 83.0844 69.645C83.0844 69.365 83.1477 69.1267 83.2744 68.93C83.401 68.73 83.5694 68.5633 83.7794 68.43C83.9894 68.2967 84.2194 68.1917 84.4694 68.115C84.7227 68.035 84.9794 67.9767 85.2394 67.94C85.4994 67.9033 85.741 67.8833 85.9644 67.88C85.961 67.49 85.8777 67.2267 85.7144 67.09C85.551 66.95 85.3027 66.88 84.9694 66.88C84.7694 66.88 84.5644 66.91 84.3544 66.97C84.1444 67.0267 83.9077 67.135 83.6444 67.295L83.5244 66.445C83.7644 66.2983 84.0327 66.1817 84.3294 66.095C84.626 66.0083 84.9327 65.965 85.2494 65.965C85.646 65.965 85.9744 66.035 86.2344 66.175C86.4944 66.315 86.6894 66.5467 86.8194 66.87C86.9494 67.1933 87.0144 67.6267 87.0144 68.17V69.32C87.0144 69.56 87.0244 69.7483 87.0444 69.885C87.0677 70.0183 87.116 70.1133 87.1894 70.17C87.2627 70.2267 87.3744 70.255 87.5244 70.255H87.6444L87.5144 71.1H87.2844C87.0377 71.1 86.8377 71.0733 86.6844 71.02C86.5344 70.9667 86.4127 70.8917 86.3194 70.795C86.226 70.695 86.1477 70.5767 86.0844 70.44C85.9077 70.64 85.6877 70.8 85.4244 70.92C85.1644 71.04 84.8794 71.1 84.5694 71.1ZM84.8894 70.28C85.076 70.28 85.2677 70.2333 85.4644 70.14C85.6644 70.0467 85.8327 69.9167 85.9694 69.75V68.59C85.596 68.6067 85.2744 68.6517 85.0044 68.725C84.7377 68.795 84.531 68.9017 84.3844 69.045C84.241 69.1883 84.1694 69.3717 84.1694 69.595C84.1694 69.835 84.2327 70.01 84.3594 70.12C84.486 70.2267 84.6627 70.28 84.8894 70.28ZM88.5171 73.42L89.6371 70.735L87.5821 66.06H88.7421L90.1671 69.52L91.5121 66.06H92.6721L89.6171 73.42H88.5171ZM93.5221 66.31H92.9471L93.3371 65.185H92.9221V64H94.0921V65.075L93.5221 66.31ZM95.9922 71.1C95.6022 71.1 95.2689 71.0567 94.9922 70.97C94.7155 70.8833 94.4872 70.7917 94.3072 70.695L94.4172 69.745C94.5872 69.8617 94.8022 69.975 95.0622 70.085C95.3255 70.1917 95.6222 70.245 95.9522 70.245C96.2389 70.245 96.4572 70.1983 96.6072 70.105C96.7605 70.0083 96.8372 69.8667 96.8372 69.68C96.8372 69.5267 96.7922 69.4033 96.7022 69.31C96.6122 69.2133 96.4939 69.1333 96.3472 69.07C96.2005 69.0067 96.0455 68.9483 95.8822 68.895C95.6255 68.8117 95.3822 68.715 95.1522 68.605C94.9255 68.495 94.7405 68.3483 94.5972 68.165C94.4572 67.9783 94.3872 67.7317 94.3872 67.425C94.3872 67.1583 94.4539 66.9133 94.5872 66.69C94.7205 66.4667 94.9222 66.29 95.1922 66.16C95.4655 66.0267 95.8122 65.96 96.2322 65.96C96.5522 65.96 96.8239 65.995 97.0472 66.065C97.2739 66.1317 97.4755 66.2117 97.6522 66.305L97.5422 67.23C97.3655 67.0933 97.1739 66.98 96.9672 66.89C96.7639 66.7967 96.5255 66.75 96.2522 66.75C95.9989 66.75 95.7972 66.8 95.6472 66.9C95.4972 66.9967 95.4222 67.145 95.4222 67.345C95.4222 67.5583 95.5105 67.7133 95.6872 67.81C95.8639 67.9067 96.1389 68.0183 96.5122 68.145C96.6822 68.2017 96.8489 68.27 97.0122 68.35C97.1755 68.4267 97.3239 68.52 97.4572 68.63C97.5939 68.74 97.7022 68.8767 97.7822 69.04C97.8622 69.2033 97.9022 69.3983 97.9022 69.625C97.9022 69.885 97.8389 70.1267 97.7122 70.35C97.5889 70.5733 97.3872 70.755 97.1072 70.895C96.8305 71.0317 96.4589 71.1 95.9922 71.1ZM105.003 69.21H102.033V68.235H105.003V69.21ZM103.368 65.065H103.668L101.573 71H100.473L102.973 64H104.063L106.563 71H105.463L103.368 65.065ZM109.387 71.1C108.827 71.1 108.355 70.985 107.972 70.755C107.592 70.525 107.305 70.2183 107.112 69.835C106.918 69.4483 106.822 69.02 106.822 68.55C106.822 68.0667 106.917 67.63 107.107 67.24C107.297 66.8467 107.585 66.535 107.972 66.305C108.358 66.075 108.85 65.96 109.447 65.96C109.713 65.96 109.96 65.9883 110.187 66.045C110.413 66.0983 110.613 66.17 110.787 66.26L110.662 67.14C110.492 67.0567 110.307 66.99 110.107 66.94C109.907 66.8867 109.7 66.86 109.487 66.86C108.97 66.86 108.573 67.01 108.297 67.31C108.023 67.61 107.887 68.015 107.887 68.525C107.887 69.0217 108.022 69.4267 108.292 69.74C108.562 70.0533 108.955 70.21 109.472 70.21C109.685 70.21 109.892 70.1833 110.092 70.13C110.295 70.0733 110.488 69.9967 110.672 69.9L110.787 70.76C110.637 70.8533 110.435 70.9333 110.182 71C109.932 71.0667 109.667 71.1 109.387 71.1ZM113.313 71.1C113.003 71.1 112.751 71.04 112.558 70.92C112.368 70.8 112.228 70.6467 112.138 70.46C112.051 70.2733 112.008 70.0767 112.008 69.87V66.895H111.223L111.318 66.06H112.008V64.895L113.053 64.785V66.06H114.263V66.895H113.053V69.34C113.053 69.6267 113.069 69.835 113.103 69.965C113.136 70.0917 113.218 70.1717 113.348 70.205C113.478 70.2383 113.684 70.255 113.968 70.255H114.248L114.158 71.1H113.313ZM115.046 71V66.06H116.091V71H115.046ZM115.046 65.1V64H116.091V65.1H115.046ZM118.643 71L116.753 66.06H117.848L119.158 69.775L120.463 66.06H121.558L119.673 71H118.643ZM122.214 71V66.06H123.259V71H122.214ZM122.214 65.1V64H123.259V65.1H122.214ZM126.115 71.1C125.805 71.1 125.554 71.04 125.36 70.92C125.17 70.8 125.03 70.6467 124.94 70.46C124.854 70.2733 124.81 70.0767 124.81 69.87V66.895H124.025L124.12 66.06H124.81V64.895L125.855 64.785V66.06H127.065V66.895H125.855V69.34C125.855 69.6267 125.872 69.835 125.905 69.965C125.939 70.0917 126.02 70.1717 126.15 70.205C126.28 70.2383 126.487 70.255 126.77 70.255H127.05L126.96 71.1H126.115ZM128.234 73.42L129.354 70.735L127.299 66.06H128.459L129.884 69.52L131.229 66.06H132.389L129.334 73.42H128.234Z" fill="#777784"/>
<rect x="109.307" y="47" width="177.693" height="6" rx="3" fill="#EEEEEE"/>
<rect x="107" y="47" width="77.3917" height="6" rx="3" fill="#FFBE2E"/>
</g>
<defs>
<filter id="filter0_d_1_948" x="0" y="0" width="355" height="145.014" filterUnits="userSpaceOnUse" color-interpolation-filters="sRGB">
<feFlood flood-opacity="0" result="BackgroundImageFix"/>
<feColorMatrix in="SourceAlpha" type="matrix" values="0 0 0 0 0 0 0 0 0 0 0 0 0 0 0 0 0 0 127 0" result="hardAlpha"/>
<feOffset dy="15"/>
<feGaussianBlur stdDeviation="15"/>
<feComposite in2="hardAlpha" operator="out"/>
<feColorMatrix type="matrix" values="0 0 0 0 0 0 0 0 0 0 0 0 0 0 0 0 0 0 0.07 0"/>
<feBlend mode="normal" in2="BackgroundImageFix" result="effect1_dropShadow_1_948"/>
<feBlend mode="normal" in="SourceGraphic" in2="effect1_dropShadow_1_948" result="shape"/>
</filter>
</defs>
</svg>
