<svg width="355" height="146" viewBox="0 0 355 146" fill="none" xmlns="http://www.w3.org/2000/svg">
<g filter="url(#filter0_d_1_941)">
<path d="M30 33.1794C30 23.1392 38.1392 15 48.1794 15H306.821C316.861 15 325 23.1392 325 33.1794V81.9063C325 91.9072 316.893 100.014 306.892 100.014H48.1081C38.1072 100.014 30 91.9072 30 81.9063V33.1794Z" fill="white"/>
<path d="M30.4167 33.1794C30.4167 23.3693 38.3693 15.4167 48.1794 15.4167H306.821C316.631 15.4167 324.583 23.3693 324.583 33.1794V81.9063C324.583 91.677 316.663 99.5977 306.892 99.5977H48.1081C38.3374 99.5977 30.4167 91.677 30.4167 81.9063V33.1794Z" stroke="#F3F3F3" stroke-width="0.833357"/>
<path d="M151.465 71.5733C157.585 71.5733 161.234 66.9361 161.234 58.8021C161.234 50.744 157.623 45.9928 151.465 45.9928C145.346 45.9928 141.697 50.63 141.697 58.8021C141.697 66.8221 145.308 71.5733 151.465 71.5733ZM151.465 67.4683C148.387 67.4683 146.676 64.3135 146.676 58.8021C146.676 53.1766 148.349 50.0979 151.465 50.0979C154.506 50.0979 156.217 53.2146 156.217 58.8021C156.217 64.3895 154.544 67.4683 151.465 67.4683ZM173.365 71.5733C179.485 71.5733 183.134 66.9361 183.134 58.8021C183.134 50.744 179.523 45.9928 173.365 45.9928C167.246 45.9928 163.597 50.63 163.597 58.8021C163.597 66.8221 167.208 71.5733 173.365 71.5733ZM173.365 67.4683C170.287 67.4683 168.576 64.3135 168.576 58.8021C168.576 53.1766 170.249 50.0979 173.365 50.0979C176.406 50.0979 178.117 53.2146 178.117 58.8021C178.117 64.3895 176.444 67.4683 173.365 67.4683ZM186.295 57.5478H191.655V52.1884H186.295V57.5478ZM186.295 71.0032H191.655V65.6438H186.295V71.0032ZM204.582 71.5733C210.702 71.5733 214.351 66.9361 214.351 58.8021C214.351 50.744 210.74 45.9928 204.582 45.9928C198.463 45.9928 194.814 50.63 194.814 58.8021C194.814 66.8221 198.425 71.5733 204.582 71.5733ZM204.582 67.4683C201.504 67.4683 199.793 64.3135 199.793 58.8021C199.793 53.1766 201.466 50.0979 204.582 50.0979C207.623 50.0979 209.334 53.2146 209.334 58.8021C209.334 64.3895 207.661 67.4683 204.582 67.4683ZM236.175 62.8311C236.175 58.0799 233.514 54.1269 227.129 54.1269C225.152 54.1269 223.67 54.621 222.415 55.4192L222.72 50.3259H234.921V46.563H218.767L218.006 59.8283L222.377 60.2464C223.138 59.0681 224.506 58.0799 226.711 58.0799C230.093 58.0799 231.31 60.3605 231.31 62.8691C231.31 65.7958 229.751 67.5443 226.787 67.5443C223.936 67.5443 222.339 66.1379 221.921 63.8954H217.056C217.74 68.6466 221.275 71.5733 226.825 71.5733C232.906 71.5733 236.175 67.8104 236.175 62.8311ZM239.412 57.5478H244.772V52.1884H239.412V57.5478ZM239.412 71.0032H244.772V65.6438H239.412V71.0032ZM248.691 71.0032H266.632V67.2782H253.784C255.799 61.6148 266.556 60.9686 266.556 53.6328C266.556 49.3757 263.629 45.9928 257.927 45.9928C252.644 45.9928 249.261 48.9956 248.577 53.7848H253.556C253.936 51.4282 255.267 50.0218 257.889 50.0218C260.284 50.0218 261.652 51.3902 261.652 53.6708C261.652 59.4482 248.691 58.8401 248.691 69.7869V71.0032ZM279.714 71.5733C285.453 71.5733 289.216 68.6846 289.216 64.0474C289.216 61.5388 287.772 59.4862 285.339 58.2699C287.277 57.1296 288.418 55.3432 288.418 53.0626C288.418 48.7295 284.921 45.9928 279.714 45.9928C274.506 45.9928 271.047 48.8055 271.047 53.0626C271.047 55.3432 272.15 57.1296 274.012 58.2699C271.655 59.4482 270.211 61.4247 270.211 64.0854C270.211 68.6466 273.974 71.5733 279.714 71.5733ZM279.714 49.9458C282.108 49.9458 283.629 51.1241 283.629 53.2907C283.629 55.4192 282.07 56.7115 279.714 56.7115C277.357 56.7115 275.799 55.4572 275.799 53.2907C275.799 51.2001 277.357 49.9458 279.714 49.9458ZM279.714 67.6203C276.939 67.6203 275.114 66.214 275.114 63.8574C275.114 61.3867 276.939 59.9804 279.714 59.9804C282.488 59.9804 284.313 61.4247 284.313 63.8193C284.313 66.252 282.526 67.6203 279.714 67.6203Z" fill="#525AA0"/>
<path d="M106.513 77.9112C95.244 77.9112 86.1094 68.7765 86.1094 57.5077C86.1094 46.2389 95.244 37.1042 106.513 37.1042C117.782 37.1042 126.916 46.2389 126.916 57.5077C126.916 68.7765 117.782 77.9112 106.513 77.9112ZM106.513 73.8305C110.842 73.8305 114.994 72.1108 118.055 69.0496C121.116 65.9885 122.836 61.8368 122.836 57.5077C122.836 53.1786 121.116 49.0269 118.055 45.9658C114.994 42.9047 110.842 41.1849 106.513 41.1849C102.184 41.1849 98.032 42.9047 94.9709 45.9658C91.9098 49.0269 90.1901 53.1786 90.1901 57.5077C90.1901 61.8368 91.9098 65.9885 94.9709 69.0496C98.032 72.1108 102.184 73.8305 106.513 73.8305Z" fill="#525AA0"/>
<rect x="100.562" y="51.5566" width="11.902" height="11.902" rx="2.55043" fill="#525AA0"/>
<g clip-path="url(#clip0_1_941)">
<path d="M60.6056 52.4064V54.1067H64.8564V63.4583H55.5048V59.2075H53.8045V64.3084C53.8045 64.5339 53.894 64.7501 54.0535 64.9095C54.2129 65.069 54.4292 65.1585 54.6546 65.1585H65.7065C65.932 65.1585 66.1482 65.069 66.3076 64.9095C66.4671 64.7501 66.5566 64.5339 66.5566 64.3084V53.2565C66.5566 53.0311 66.4671 52.8148 66.3076 52.6554C66.1482 52.496 65.932 52.4064 65.7065 52.4064H60.6056ZM51.254 49.856V56.6571H52.9543V52.7575L59.5795 59.3835L60.7816 58.1814L54.1573 51.5562H58.0552V49.856H51.254Z" fill="#1D1D28"/>
</g>
</g>
<defs>
<filter id="filter0_d_1_941" x="0" y="0" width="355" height="145.014" filterUnits="userSpaceOnUse" color-interpolation-filters="sRGB">
<feFlood flood-opacity="0" result="BackgroundImageFix"/>
<feColorMatrix in="SourceAlpha" type="matrix" values="0 0 0 0 0 0 0 0 0 0 0 0 0 0 0 0 0 0 127 0" result="hardAlpha"/>
<feOffset dy="15"/>
<feGaussianBlur stdDeviation="15"/>
<feComposite in2="hardAlpha" operator="out"/>
<feColorMatrix type="matrix" values="0 0 0 0 0 0 0 0 0 0 0 0 0 0 0 0 0 0 0.04 0"/>
<feBlend mode="normal" in2="BackgroundImageFix" result="effect1_dropShadow_1_941"/>
<feBlend mode="normal" in="SourceGraphic" in2="effect1_dropShadow_1_941" result="shape"/>
</filter>
<clipPath id="clip0_1_941">
<rect width="20.4035" height="20.4035" fill="white" transform="matrix(-1 0 0 1 69.1064 47.3057)"/>
</clipPath>
</defs>
</svg>
